[center][img]http://img820.imageshack.us/img820/9927/thechaperone20111.jpg[/img]



[img]http://leetleech.org/images/48874973695367351744.png[/img]


Format                           : AVI
Format/Info                      : Audio Video Interleave
File size                        : 1.13 GiB
Duration                         : 1h 43mn
Overall bit rate                 : 1 562 Kbps
Writing application              : VirtualDubMod 1.5.10.2 (build 2540/release)
Writing library                  : VirtualDub build 32839/release

Video
ID                               : 0
Format                           : MPEG-4 Visual
Format profile                   : Advanced Simple@L5
Format settings, BVOP            : Yes
Format settings, QPel            : No
Format settings, GMC             : No warppoints
Format settings, Matrix          : Custom
Codec ID                         : XVID
Codec ID/Hint                    : XviD
Duration                         : 1h 43mn
Bit rate                         : 1 421 Kbps
Width                            : 608 pixels
Height                           : 336 pixels
Display aspect ratio             : 16:9
Frame rate                       : 23.976 fps
Color space                      : YUV
Chroma subsampling               : 4:2:0
Bit depth                        : 8 bits
Scan type                        : Progressive
Bits/(Pixel*Frame)               : 0.290
Stream size                      : 1.03 GiB (91%)
Writing library                  : XviD 1.2.1 (UTC 2008-12-04)

Audio
ID                               : 1
Format                           : MPEG Audio
Format version                   : Version 1
Format profile                   : Layer 3
Mode                             : Joint stereo
Mode extension                   : MS Stereo
Codec ID                         : 55
Codec ID/Hint                    : MP3
Duration                         : 1h 43mn
Bit rate mode                    : Variable
Bit rate                         : 128 Kbps
Channel(s)                       : 2 channels
Sampling rate                    : 48.0 KHz
Stream size                      : 95.5 MiB (8%)
Alignment                        : Aligned on interleaves
Interleave, duration             : 24 ms (0.58 video frame)
Interleave, preload duration     : 143 ms
Writing library                  : LAME3.90.
Encoding settings                : -m j -V 4 -q 2 -lowpass 17.6 --abr 128




[url]http://www.imdb.com/title/tt1663187/[/url]




[IMG]http://leetleech.org/images/89524873606771859129.png[/IMG]


Storyline

Ray Bradstone (Levesque) is the best wheel man in the business, but he is determined to go straight and be the best parent he can be to his daughter, Sally (Winter), and make amends with his ex-wife, Lynne (Gish). As Ray struggles to find honest work, his old bank-robbing crew, led by Phillip Larue (Corrigan), offers him one last job. He agrees at first, but changes his mind at the last second leaving the crew without a driver. Ray decides instead to serve as a chaperone for Sally's school field trip. When the robbery goes awry, Larue blames Ray and chases the school bus all the way to the Museum of Natural History in New Orleans. Ray must deal with Larue, while supervising Sally's class on what becomes one of the craziest school trips ever

Users: 4.4/10 (160 votes) write review | Critics: 10 reviews Metascore: 33/100 (based on 11 reviews from Metacritic.com)


Director:
Stephen Herek
Writer:
S.J. Roth
Stars:
Paul Levesque, Kevin Corrigan and José Zúñiga



[img]http://leetleech.org/images/95521316153253938506.png[/img]




[img]http://img823.imageshack.us/img823/1357/vlcsnap2011030418h05m32.png[/img]

[img]http://img846.imageshack.us/img846/2715/vlcsnap2011030418h05m40.png[/img]

[img]http://img402.imageshack.us/img402/5000/vlcsnap2011030418h05m52.png[/img]







Greetz to Imagine ,Flawl3ss ,Santi ,Vision ,Kingdom, BDK, TOXiCiNK, THC, Ez, Rx,





[img]http://img411.imageshack.us/img411/6898/sig1n.jpg[/img]




